<svg xmlns="http://www.w3.org/2000/svg" viewBox="0 0 850 434" version="1.0" shape-rendering="geometricPrecision" viewport="0 0 400px 204px"><defs><style type="text/css">@font-face {
  font-family: sans-serif;
}</style><filter id="shadowBlur" x="0" y="0" width="200%" height="200%"><feOffset in="SourceGraphic" dx="3.0003002" dy="3.0003002" result="offOut"/><feGaussianBlur in="offOut" stdDeviation="3"/></filter></defs><g stroke-width="1" stroke-linecap="square" stroke-linejoin="round"><rect x="0" y="0" width="850" height="434" style="fill: #ffffff"/><path stroke="#969696" fill="#969696" filter="url(#shadowBlur)" d="M700.0 189.0 Q705.0 189.0 705.0 196.0 L705.0 238.0 Q705.0 245.0 700.0 245.0 L530.0 245.0 L530.0 245.0 Q525.0 245.0 525.0 238.0 L525.0 196.0 L525.0 196.0 Q525.0 189.0 530.0 189.0 L700.0 189.0 z"/><path stroke="#969696" fill="#969696" filter="url(#shadowBlur)" d="M480.0 35.0 Q485.0 35.0 485.0 42.0 L485.0 84.0 Q485.0 91.0 480.0 91.0 L430.0 91.0 L430.0 91.0 Q425.0 91.0 425.0 84.0 L425.0 42.0 L425.0 42.0 Q425.0 35.0 430.0 35.0 L480.0 35.0 z"/><path stroke="#969696" fill="#969696" filter="url(#shadowBlur)" d="M250.0 35.0 Q255.0 35.0 255.0 42.0 L255.0 84.0 Q255.0 91.0 250.0 91.0 L200.0 91.0 L200.0 91.0 Q195.0 91.0 195.0 84.0 L195.0 42.0 L195.0 42.0 Q195.0 35.0 200.0 35.0 L250.0 35.0 z"/><path stroke="#969696" fill="#969696" filter="url(#shadowBlur)" d="M480.0 343.0 Q485.0 343.0 485.0 350.0 L485.0 392.0 Q485.0 399.0 480.0 399.0 L430.0 399.0 L430.0 399.0 Q425.0 399.0 425.0 392.0 L425.0 350.0 L425.0 350.0 Q425.0 343.0 430.0 343.0 L480.0 343.0 z"/><path stroke="#969696" fill="#969696" filter="url(#shadowBlur)" d="M240.0 343.0 Q245.0 343.0 245.0 350.0 L245.0 392.0 Q245.0 399.0 240.0 399.0 L190.0 399.0 L190.0 399.0 Q185.0 399.0 185.0 392.0 L185.0 350.0 L185.0 350.0 Q185.0 343.0 190.0 343.0 L240.0 343.0 z"/><path stroke="#969696" fill="#969696" filter="url(#shadowBlur)" d="M440.0 189.0 Q435.0 189.0 435.0 196.0 L435.0 238.0 Q435.0 245.0 440.0 245.0 L480.0 245.0 L480.0 245.0 Q485.0 245.0 485.0 238.0 L485.0 196.0 L485.0 196.0 Q485.0 189.0 480.0 189.0 L440.0 189.0 z"/><path stroke="#000000" stroke-width="1.0" stroke-linecap="round" stroke-linejoin="round" fill="white" d="M700.0 189.0 Q705.0 189.0 705.0 196.0 L705.0 238.0 Q705.0 245.0 700.0 245.0 L530.0 245.0 L530.0 245.0 Q525.0 245.0 525.0 238.0 L525.0 196.0 L525.0 196.0 Q525.0 189.0 530.0 189.0 L700.0 189.0 z"/><path stroke="#000000" stroke-width="1.0" stroke-dasharray="5.000000,5.000000" stroke-miterlimit="0" stroke-linecap="butt" stroke-linejoin="round" fill="white" d="M365.0 273.0 L365.0 301.0 L545.0 301.0 L545.0 273.0 z"/><path stroke="#000000" stroke-width="1.0" stroke-dasharray="5.000000,5.000000" stroke-miterlimit="0" stroke-linecap="butt" stroke-linejoin="round" fill="white" d="M535.0 119.0 L535.0 147.0 L385.0 147.0 L385.0 119.0 z"/><path stroke="#000000" stroke-width="1.0" stroke-dasharray="5.000000,5.000000" stroke-miterlimit="0" stroke-linecap="butt" stroke-linejoin="round" fill="white" d="M155.0 357.0 L155.0 385.0 L25.0 385.0 L25.0 357.0 z"/><path stroke="#000000" stroke-width="1.0" stroke-dasharray="5.000000,5.000000" stroke-miterlimit="0" stroke-linecap="butt" stroke-linejoin="round" fill="white" d="M385.0 203.0 L385.0 231.0 L255.0 231.0 L255.0 203.0 z"/><path stroke="#000000" stroke-width="1.0" stroke-linecap="round" stroke-linejoin="round" fill="#5555bb" d="M480.0 35.0 Q485.0 35.0 485.0 42.0 L485.0 84.0 Q485.0 91.0 480.0 91.0 L430.0 91.0 L430.0 91.0 Q425.0 91.0 425.0 84.0 L425.0 42.0 L425.0 42.0 Q425.0 35.0 430.0 35.0 L480.0 35.0 z"/><path stroke="#000000" stroke-width="1.0" stroke-linecap="round" stroke-linejoin="round" fill="white" d="M250.0 35.0 Q255.0 35.0 255.0 42.0 L255.0 84.0 Q255.0 91.0 250.0 91.0 L200.0 91.0 L200.0 91.0 Q195.0 91.0 195.0 84.0 L195.0 42.0 L195.0 42.0 Q195.0 35.0 200.0 35.0 L250.0 35.0 z"/><path stroke="#000000" stroke-width="1.0" stroke-linecap="round" stroke-linejoin="round" fill="white" d="M480.0 343.0 Q485.0 343.0 485.0 350.0 L485.0 392.0 Q485.0 399.0 480.0 399.0 L430.0 399.0 L430.0 399.0 Q425.0 399.0 425.0 392.0 L425.0 350.0 L425.0 350.0 Q425.0 343.0 430.0 343.0 L480.0 343.0 z"/><path stroke="#000000" stroke-width="1.0" stroke-linecap="round" stroke-linejoin="round" fill="white" d="M240.0 343.0 Q245.0 343.0 245.0 350.0 L245.0 392.0 Q245.0 399.0 240.0 399.0 L190.0 399.0 L190.0 399.0 Q185.0 399.0 185.0 392.0 L185.0 350.0 L185.0 350.0 Q185.0 343.0 190.0 343.0 L240.0 343.0 z"/><path stroke="#000000" stroke-width="1.0" stroke-dasharray="5.000000,5.000000" stroke-miterlimit="0" stroke-linecap="butt" stroke-linejoin="round" fill="white" d="M395.0 357.0 L395.0 385.0 L275.0 385.0 L275.0 357.0 z"/><path stroke="#000000" stroke-width="1.0" stroke-dasharray="5.000000,5.000000" stroke-miterlimit="0" stroke-linecap="butt" stroke-linejoin="round" fill="white" d="M165.0 49.0 L165.0 77.0 L55.0 77.0 L55.0 49.0 z"/><path stroke="#000000" stroke-width="1.0" stroke-linecap="round" stroke-linejoin="round" fill="white" d="M440.0 189.0 Q435.0 189.0 435.0 196.0 L435.0 238.0 Q435.0 245.0 440.0 245.0 L480.0 245.0 L480.0 245.0 Q485.0 245.0 485.0 238.0 L485.0 196.0 L485.0 196.0 Q485.0 189.0 480.0 189.0 L440.0 189.0 z"/><path stroke="#000000" stroke-width="1.0" stroke-dasharray="5.000000,5.000000" stroke-miterlimit="0" stroke-linecap="butt" stroke-linejoin="round" fill="white" d="M285.0 49.0 L285.0 77.0 L385.0 77.0 L385.0 49.0 z"/><path stroke="#000000" stroke-width="1.0" stroke-linecap="round" stroke-linejoin="round" fill="none" d="M425.0 203.0 L405.0 203.0 L405.0 175.0 L325.0 175.0 L325.0 189.0 "/><path stroke="#000000" stroke-width="1.0" stroke-linecap="round" stroke-linejoin="round" fill="none" d="M425.0 231.0 L405.0 231.0 L405.0 259.0 L325.0 259.0 L325.0 245.0 "/><path stroke="none" stroke-width="1.0" stroke-linecap="round" stroke-linejoin="round" fill="#000000" d="M180.0 56.0 L190.0 63.0 L180.0 70.0 z"/><path stroke="none" stroke-width="1.0" stroke-linecap="round" stroke-linejoin="round" fill="#000000" d="M400.0 56.0 L410.0 63.0 L400.0 70.0 z"/><path stroke="none" stroke-width="1.0" stroke-linecap="round" stroke-linejoin="round" fill="#000000" d="M450.0 168.0 L455.0 182.0 L460.0 168.0 z"/><path stroke="none" stroke-width="1.0" stroke-linecap="round" stroke-linejoin="round" fill="#000000" d="M420.0 196.0 L430.0 203.0 L420.0 210.0 z"/><path stroke="none" stroke-width="1.0" stroke-linecap="round" stroke-linejoin="round" fill="#000000" d="M510.0 196.0 L520.0 203.0 L510.0 210.0 z"/><path stroke="none" stroke-width="1.0" stroke-linecap="round" stroke-linejoin="round" fill="#000000" d="M500.0 224.0 L490.0 231.0 L500.0 238.0 z"/><path stroke="none" stroke-width="1.0" stroke-linecap="round" stroke-linejoin="round" fill="#000000" d="M450.0 322.0 L455.0 336.0 L460.0 322.0 z"/><path stroke="none" stroke-width="1.0" stroke-linecap="round" stroke-linejoin="round" fill="#000000" d="M170.0 364.0 L160.0 371.0 L170.0 378.0 z"/><path stroke="none" stroke-width="1.0" stroke-linecap="round" stroke-linejoin="round" fill="#000000" d="M260.0 364.0 L250.0 371.0 L260.0 378.0 z"/><path stroke="#000000" stroke-width="1.0" stroke-linecap="round" stroke-linejoin="round" fill="none" d="M455.0 98.0 L455.0 111.0 "/><path stroke="#000000" stroke-width="1.0" stroke-linecap="round" stroke-linejoin="round" fill="none" d="M455.0 154.0 L455.0 175.0 "/><path stroke="#000000" stroke-width="1.0" stroke-linecap="round" stroke-linejoin="round" fill="none" d="M455.0 252.0 L455.0 265.0 "/><path stroke="#000000" stroke-width="1.0" stroke-linecap="round" stroke-linejoin="round" fill="none" d="M455.0 308.0 L455.0 329.0 "/><path stroke="#000000" stroke-width="1.0" stroke-linecap="round" stroke-linejoin="round" fill="none" d="M255.0 371.0 L269.0 371.0 "/><path stroke="#000000" stroke-width="1.0" stroke-linecap="round" stroke-linejoin="round" fill="none" d="M390.0 63.0 L405.0 63.0 "/><path stroke="#000000" stroke-width="1.0" stroke-linecap="round" stroke-linejoin="round" fill="none" d="M170.0 63.0 L185.0 63.0 "/><path stroke="#000000" stroke-width="1.0" stroke-linecap="round" stroke-linejoin="round" fill="none" d="M165.0 371.0 L179.0 371.0 "/><path stroke="#000000" stroke-width="1.0" stroke-linecap="round" stroke-linejoin="round" fill="none" d="M275.0 63.0 L265.0 63.0 "/><path stroke="#000000" stroke-width="1.0" stroke-linecap="round" stroke-linejoin="round" fill="none" d="M515.0 203.0 L495.0 203.0 "/><path stroke="#000000" stroke-width="1.0" stroke-linecap="round" stroke-linejoin="round" fill="none" d="M515.0 231.0 L495.0 231.0 "/><path stroke="#000000" stroke-width="1.0" stroke-linecap="round" stroke-linejoin="round" fill="none" d="M415.0 371.0 L405.0 371.0 "/><text x="402" y="139" font-family="sans-serif" font-size="16" stroke="none" fill="#000000">semantic frame</text><text x="549" y="69" font-family="sans-serif" font-size="16" stroke="none" fill="#000000">this the part we're interested in</text><text x="302" y="69" font-family="sans-serif" font-size="16" stroke="none" fill="#000000">user text</text><text x="389" y="293" font-family="sans-serif" font-size="16" stroke="none" fill="#000000">structured output</text><text x="555" y="223" font-family="sans-serif" font-size="16" stroke="none" fill="#000000">external system</text><text x="276" y="223" font-family="sans-serif" font-size="16" stroke="none" fill="#000000">dialog state</text><text x="40" y="377" font-family="sans-serif" font-size="16" stroke="none" fill="#000000">system voice</text><text x="292" y="377" font-family="sans-serif" font-size="16" stroke="none" fill="#000000">system text</text><text x="71" y="69" font-family="sans-serif" font-size="16" stroke="none" fill="#000000">user voice</text><text x="440" y="68" font-family="sans-serif" font-size="14" stroke="none" fill="#ffffff">NLU</text><text x="441" y="376" font-family="sans-serif" font-size="13" stroke="none" fill="#000000">NLG</text><text x="450" y="222" font-family="sans-serif" font-size="13" stroke="none" fill="#000000">DM</text><text x="200" y="376" font-family="sans-serif" font-size="15" stroke="none" fill="#000000">TTS</text><text x="210" y="68" font-family="sans-serif" font-size="14" stroke="none" fill="#000000">ASR</text></g></svg>