<svg xmlns="http://www.w3.org/2000/svg" viewBox="0 0 1150 266" version="1.0" shape-rendering="geometricPrecision" viewport="0 0 1600px 370px"><defs><style type="text/css">@font-face {
  font-family: sans-serif;
}</style><filter id="shadowBlur" x="0" y="0" width="200%" height="200%"><feOffset in="SourceGraphic" dx="3.0003002" dy="3.0003002" result="offOut"/><feGaussianBlur in="offOut" stdDeviation="3"/></filter></defs><g stroke-width="1" stroke-linecap="square" stroke-linejoin="round"><rect x="0" y="0" width="1150" height="266" style="fill: #ffffff"/><path stroke="#969696" fill="#969696" filter="url(#shadowBlur)" d="M300.0 35.0 Q305.0 35.0 305.0 42.0 L305.0 84.0 Q305.0 91.0 300.0 91.0 L130.0 91.0 L130.0 91.0 Q125.0 91.0 125.0 84.0 L125.0 42.0 L125.0 42.0 Q125.0 35.0 130.0 35.0 L300.0 35.0 z"/><path stroke="#969696" fill="#969696" filter="url(#shadowBlur)" d="M650.0 35.0 Q655.0 35.0 655.0 42.0 L655.0 84.0 Q655.0 91.0 650.0 91.0 L480.0 91.0 L480.0 91.0 Q475.0 91.0 475.0 84.0 L475.0 42.0 L475.0 42.0 Q475.0 35.0 480.0 35.0 L650.0 35.0 z"/><path stroke="#969696" fill="#969696" filter="url(#shadowBlur)" d="M350.0 175.0 Q355.0 175.0 355.0 182.0 L355.0 224.0 Q355.0 231.0 350.0 231.0 L230.0 231.0 L230.0 231.0 Q225.0 231.0 225.0 224.0 L225.0 182.0 L225.0 182.0 Q225.0 175.0 230.0 175.0 L350.0 175.0 z"/><path stroke="#969696" fill="#969696" filter="url(#shadowBlur)" d="M940.0 105.0 Q945.0 105.0 945.0 112.0 L945.0 154.0 Q945.0 161.0 940.0 161.0 L860.0 161.0 L860.0 161.0 Q855.0 161.0 855.0 154.0 L855.0 112.0 L855.0 112.0 Q855.0 105.0 860.0 105.0 L940.0 105.0 z"/><path stroke="#000000" stroke-width="1.0" stroke-linecap="round" stroke-linejoin="round" fill="#5555bb" d="M300.0 35.0 Q305.0 35.0 305.0 42.0 L305.0 84.0 Q305.0 91.0 300.0 91.0 L130.0 91.0 L130.0 91.0 Q125.0 91.0 125.0 84.0 L125.0 42.0 L125.0 42.0 Q125.0 35.0 130.0 35.0 L300.0 35.0 z"/><path stroke="#000000" stroke-width="1.0" stroke-linecap="round" stroke-linejoin="round" fill="#5555bb" d="M650.0 35.0 Q655.0 35.0 655.0 42.0 L655.0 84.0 Q655.0 91.0 650.0 91.0 L480.0 91.0 L480.0 91.0 Q475.0 91.0 475.0 84.0 L475.0 42.0 L475.0 42.0 Q475.0 35.0 480.0 35.0 L650.0 35.0 z"/><path stroke="#000000" stroke-width="1.0" stroke-linecap="round" stroke-linejoin="round" fill="#5555bb" d="M350.0 175.0 Q355.0 175.0 355.0 182.0 L355.0 224.0 Q355.0 231.0 350.0 231.0 L230.0 231.0 L230.0 231.0 Q225.0 231.0 225.0 224.0 L225.0 182.0 L225.0 182.0 Q225.0 175.0 230.0 175.0 L350.0 175.0 z"/><path stroke="#000000" stroke-width="1.0" stroke-dasharray="5.000000,5.000000" stroke-miterlimit="0" stroke-linecap="butt" stroke-linejoin="round" fill="white" d="M385.0 189.0 L385.0 217.0 L625.0 217.0 L625.0 189.0 z"/><path stroke="#000000" stroke-width="1.0" stroke-linecap="round" stroke-linejoin="round" fill="white" d="M940.0 105.0 Q945.0 105.0 945.0 112.0 L945.0 154.0 Q945.0 161.0 940.0 161.0 L860.0 161.0 L860.0 161.0 Q855.0 161.0 855.0 154.0 L855.0 112.0 L855.0 112.0 Q855.0 105.0 860.0 105.0 L940.0 105.0 z"/><path stroke="#000000" stroke-width="1.0" stroke-linecap="round" stroke-linejoin="round" fill="none" d="M845.0 147.0 L825.0 147.0 L825.0 203.0 L635.0 203.0 "/><path stroke="#000000" stroke-width="1.0" stroke-dasharray="5.000000,5.000000" stroke-miterlimit="0" stroke-linecap="butt" stroke-linejoin="round" fill="white" d="M1125.0 119.0 L1125.0 147.0 L975.0 147.0 L975.0 119.0 z"/><path stroke="#000000" stroke-width="1.0" stroke-dasharray="5.000000,5.000000" stroke-miterlimit="0" stroke-linecap="butt" stroke-linejoin="round" fill="white" d="M685.0 77.0 L805.0 77.0 L805.0 49.0 L685.0 49.0 z"/><path stroke="#000000" stroke-width="1.0" stroke-linecap="round" stroke-linejoin="round" fill="none" d="M95.0 147.0 L95.0 203.0 L215.0 203.0 "/><path stroke="#000000" stroke-width="1.0" stroke-dasharray="5.000000,5.000000" stroke-miterlimit="0" stroke-linecap="butt" stroke-linejoin="round" fill="white" d="M335.0 49.0 L335.0 77.0 L445.0 77.0 L445.0 49.0 z"/><path stroke="#000000" stroke-width="1.0" stroke-dasharray="5.000000,5.000000" stroke-miterlimit="0" stroke-linecap="butt" stroke-linejoin="round" fill="white" d="M75.0 133.0 L75.0 161.0 L25.0 161.0 L25.0 133.0 z"/><path stroke="#000000" stroke-width="1.0" stroke-linecap="round" stroke-linejoin="round" fill="none" d="M95.0 147.0 L95.0 63.0 L115.0 63.0 "/><path stroke="#000000" stroke-width="1.0" stroke-linecap="round" stroke-linejoin="round" fill="none" d="M815.0 63.0 L825.0 63.0 L825.0 119.0 L845.0 119.0 "/><path stroke="none" stroke-width="1.0" stroke-linecap="round" stroke-linejoin="round" fill="#000000" d="M110.0 56.0 L120.0 63.0 L110.0 70.0 z"/><path stroke="none" stroke-width="1.0" stroke-linecap="round" stroke-linejoin="round" fill="#000000" d="M460.0 56.0 L470.0 63.0 L460.0 70.0 z"/><path stroke="none" stroke-width="1.0" stroke-linecap="round" stroke-linejoin="round" fill="#000000" d="M840.0 112.0 L850.0 119.0 L840.0 126.0 z"/><path stroke="none" stroke-width="1.0" stroke-linecap="round" stroke-linejoin="round" fill="#000000" d="M960.0 126.0 L970.0 133.0 L960.0 140.0 z"/><path stroke="none" stroke-width="1.0" stroke-linecap="round" stroke-linejoin="round" fill="#000000" d="M840.0 140.0 L850.0 147.0 L840.0 154.0 z"/><path stroke="none" stroke-width="1.0" stroke-linecap="round" stroke-linejoin="round" fill="#000000" d="M210.0 196.0 L220.0 203.0 L210.0 210.0 z"/><path stroke="#000000" stroke-width="1.0" stroke-linecap="round" stroke-linejoin="round" fill="none" d="M450.0 63.0 L465.0 63.0 "/><path stroke="#000000" stroke-width="1.0" stroke-linecap="round" stroke-linejoin="round" fill="none" d="M950.0 133.0 L965.0 133.0 "/><path stroke="#000000" stroke-width="1.0" stroke-linecap="round" stroke-linejoin="round" fill="none" d="M675.0 63.0 L665.0 63.0 "/><path stroke="#000000" stroke-width="1.0" stroke-linecap="round" stroke-linejoin="round" fill="none" d="M85.0 147.0 L95.0 147.0 "/><path stroke="#000000" stroke-width="1.0" stroke-linecap="round" stroke-linejoin="round" fill="none" d="M325.0 63.0 L315.0 63.0 "/><path stroke="#000000" stroke-width="1.0" stroke-linecap="round" stroke-linejoin="round" fill="none" d="M375.0 203.0 L365.0 203.0 "/><text x="420" y="209" font-family="sans-serif" font-size="16" stroke="none" fill="#000000">categorical slot values</text><text x="992" y="139" font-family="sans-serif" font-size="16" stroke="none" fill="#000000">semantic frame</text><text x="507" y="69" font-family="sans-serif" font-size="16" stroke="none" fill="#ffffff">Value Extractor</text><text x="150" y="69" font-family="sans-serif" font-size="16" stroke="none" fill="#ffffff">Span Recognizer</text><text x="255" y="209" font-family="sans-serif" font-size="16" stroke="none" fill="#ffffff">Classifier</text><text x="873" y="139" font-family="sans-serif" font-size="16" stroke="none" fill="#000000">Concat</text><text x="704" y="69" font-family="sans-serif" font-size="16" stroke="none" fill="#000000">slot values</text><text x="351" y="69" font-family="sans-serif" font-size="16" stroke="none" fill="#000000">slot spans</text><text x="36" y="153" font-family="sans-serif" font-size="16" stroke="none" fill="#000000">text</text></g></svg>